# xmcd
#
# Track frame offsets: 
#        182
#        1200
#        15845
#        30592
#        44227
#        57765
#        71250
#        84862
#        98367
#        111835
#        125290
#        138730
#        152265
#        165702
#        179342
#        193005
#        206720
#
# Disc length: 2937 seconds
#
# Revision: 11
# Processed by: cddbd v1.5.2PL0 Copyright (c) Steve Scherf et al.
# Submitted via: ExactAudioCopyFreeDBPlugin 1.0
#
DISCID=cf0b7711
DTITLE=Various Artists / The Best Of Schoolhouse Rock
DYEAR=1998
DGENRE=TV Soundtrack
TTITLE0=Bob Dorough & Friends / Schoolhouse Rocky
TTITLE1=Bob Dorough / Three Is A Magic Number
TTITLE2=Bob Dorough / My Hero, Zero
TTITLE3=Blossom Dearie / Figure Eight
TTITLE4=Blossom Dearie / Unpack Your Adjectives
TTITLE5=Jack Sheldon And Terry Morel / Conjunction Junction
TTITLE6=Essa Mohawk / Interjections!
TTITLE7=Lynn Ahrens / No More Kings
TTITLE8=Lynn Ahrens / The Preamble
TTITLE9=Jack Sheldon / I'm Just A Bill
TTITLE10=Bob Dorough And Jack Sheldon / The Body Machine
TTITLE11=Lynn Ahrens / Interplanet Janet
TTITLE12=Jaime Aff And Christine Langner / Telegraph Line
TTITLE13=Dave Frishberg / Walkin' On Wall Street
TTITLE14=Bob Dorough / This For That
TTITLE15=Bob Dorough And Bob Kaliban / Tyrannosaurus Debt
TTITLE16=Luther Rix / The Check's In The Mail
EXTD=
EXTT0=
EXTT1=
EXTT2=
EXTT3=
EXTT4=
EXTT5=
EXTT6=
EXTT7=
EXTT8=
EXTT9=
EXTT10=
EXTT11=
EXTT12=
EXTT13=
EXTT14=
EXTT15=
EXTT16=
PLAYORDER=
.
